<?xml version="1.0" ?>
<!-- Uploaded to: SVG Repo, www.svgrepo.com, Generator: SVG Repo Mixer Tools -->
<svg width="800px" height="800px" viewBox="0 0 500 500" id="Layer_1" version="1.1" xml:space="preserve" xmlns="http://www.w3.org/2000/svg" xmlns:xlink="http://www.w3.org/1999/xlink">
<style type="text/css">
	.st0{fill:#F26E91;}
	.st1{fill:#00A779;}
	.st2{fill:#C4FFC9;}
	.st3{fill:#AB630A;}
	.st4{fill:#C98C40;}
	.st5{fill:#15AA78;}
	.st6{fill:#FF9000;}
	.st7{fill:#FCEECF;}
	.st8{fill:#FFE940;}
	.st9{fill:#F0E3CE;}
	.st10{fill:#FFB5C5;}
	.st11{fill:#91EDFF;}
	.st12{fill:#7191F0;}
	.st13{fill:#363636;}
	.st14{fill:#565656;}
	.st15{fill:#F3DF4D;}
	.st16{fill:#CD4A77;}
	.st17{fill:#577AE6;}
	.st18{fill:#F4D100;}
</style>
<g id="popsicles">
<g>
<path class="st9" d="M147.47,312.4h33.04v147.5c0,6.46-5.24,11.69-11.69,11.69h-9.66c-6.46,0-11.69-5.24-11.69-11.69V312.4z"/>
<g>
<path class="st0" d="M113.16,28.41h101.67c12.5,0,22.64,10.14,22.64,22.64V312.4H90.52V51.05     C90.52,38.54,100.65,28.41,113.16,28.41z"/>
<g>
<path class="st10" d="M125.76,28.41h26.49V312.4h-33.04V34.96C119.21,31.34,122.15,28.41,125.76,28.41z"/>
<path class="st10" d="M175.73,28.41h26.49c3.62,0,6.55,2.93,6.55,6.55V312.4h-33.04V28.41z"/>
</g>
</g>
</g>
<g>
<path class="st9" d="M338.18,312.4h33.04v147.5c0,6.46-5.24,11.69-11.69,11.69h-9.66c-6.46,0-11.69-5.24-11.69-11.69V312.4z"/>
<g>
<path class="st6" d="M354.7,28.41L354.7,28.41c24.73,0,44.78,20.05,44.78,44.78V312.4h-89.56V73.19     C309.93,48.46,329.97,28.41,354.7,28.41z"/>
<path class="st8" d="M354.7,28.41L354.7,28.41c8.28,0,15,6.72,15,15V312.4h-30V43.41C339.7,35.12,346.42,28.41,354.7,28.41z"/>
</g>
</g>
</g>
</svg>