<?xml version="1.0" ?>
<!-- Uploaded to: SVG Repo, www.svgrepo.com, Generator: SVG Repo Mixer Tools -->
<svg width="800px" height="800px" viewBox="0 0 500 500" id="Layer_1" version="1.1" xml:space="preserve" xmlns="http://www.w3.org/2000/svg" xmlns:xlink="http://www.w3.org/1999/xlink">
<style type="text/css">
	.st0{fill:#F26E91;}
	.st1{fill:#00A779;}
	.st2{fill:#C4FFC9;}
	.st3{fill:#AB630A;}
	.st4{fill:#C98C40;}
	.st5{fill:#15AA78;}
	.st6{fill:#FF9000;}
	.st7{fill:#FCEECF;}
	.st8{fill:#FFE940;}
	.st9{fill:#F0E3CE;}
	.st10{fill:#FFB5C5;}
	.st11{fill:#91EDFF;}
	.st12{fill:#7191F0;}
	.st13{fill:#363636;}
	.st14{fill:#565656;}
	.st15{fill:#F3DF4D;}
	.st16{fill:#CD4A77;}
	.st17{fill:#577AE6;}
	.st18{fill:#F4D100;}
</style>
<g id="goggles">
<g>
<path class="st0" d="M380.02,133.79l-4.77-14.66c-0.85-2.62-3.51-4.1-5.94-3.31l-17.91,5.83c-15.38-17.59-47.08-23.73-78.85-13.38    c-17.79,5.79-32.65,15.67-42.49,27.41c-7.68,9.17-17.07,16.78-27.93,21.8c-7.37,3.41-14.23,5.89-20.39,7.69    c-14.22,4.16-29.28,4.04-43.66,0.47c-14.87-3.69-32.69-2.96-50.47,2.83c-32.07,10.44-54.18,34.41-55.89,57.9l-18.12,5.9    c-2.43,0.79-3.71,3.56-2.85,6.18l4.77,14.66c0.85,2.62,3.51,4.1,5.94,3.31l16.89-5.5c14.06,20.27,47.79,27.94,81.61,16.93    c31.35-10.21,53.19-33.34,55.77-56.31c0.64-5.74,2.74-11.27,6.51-15.65c8.98-10.44,19.38-11.74,27.4-10.52    c6.51,0.99,12.38,4.4,16.78,9.3c15.52,17.26,46.96,23.22,78.48,12.96c34.12-11.11,56.97-37.52,55.99-62.38l16.28-5.3    C379.6,139.18,380.88,136.41,380.02,133.79z"/>
<g>
<ellipse class="st11" cx="112.03" cy="212.93" rx="49.3" ry="34.82" transform="matrix(0.9509 -0.3096 0.3096 0.9509 -60.4156 45.1416)"/>
<ellipse class="st11" cx="280.99" cy="157.93" rx="49.3" ry="34.82" transform="matrix(0.9509 -0.3096 0.3096 0.9509 -35.0867 94.7448)"/>
</g>
</g>
<g>
<path class="st12" d="M485.02,417.52l4.28-14.81c0.77-2.65-0.6-5.37-3.06-6.08l-18.09-5.23c-2.86-23.19-25.64-46.06-57.74-55.34    c-17.97-5.19-35.81-5.36-50.55-1.16c-11.5,3.28-23.55,4.31-35.35,2.36c-8.02-1.32-15.08-3.11-21.19-5.08    c-14.1-4.54-26.5-13.09-36.4-24.12c-10.24-11.41-25.39-20.8-43.36-25.99c-32.4-9.36-64.15-1.94-78.76,16.54l-18.31-5.29    c-2.45-0.71-5.06,0.86-5.83,3.51l-4.28,14.81c-0.77,2.65,0.6,5.37,3.06,6.08l17.07,4.93c0.26,24.67,23.86,49.95,58.04,59.83    c31.67,9.15,62.73,2.27,77.76-15.29c3.76-4.39,8.59-7.79,14.17-9.3c13.29-3.59,22.63,1.16,28.58,6.68    c4.83,4.48,7.77,10.59,8.67,17.12c3.15,23,25.83,45.58,57.67,54.78c34.47,9.96,68.21,0.93,81.35-20.19l16.44,4.75    C481.65,421.74,484.26,420.17,485.02,417.52z"/>
<g>
<ellipse class="st11" cx="218.81" cy="332.57" rx="34.82" ry="49.3" transform="matrix(0.2776 -0.9607 0.9607 0.2776 -161.4332 450.4606)"/>
<ellipse class="st11" cx="389.52" cy="381.9" rx="34.82" ry="49.3" transform="matrix(0.2776 -0.9607 0.9607 0.2776 -85.5068 650.0891)"/>
</g>
</g>
</g>
</svg>